<svg width="150" height="40" viewBox="0 0 150 40" fill="none" xmlns="http://www.w3.org/2000/svg">
<g clip-path="url(#clip0)">
<rect width="150" height="40" fill="#243959"/>
<path d="M54.432 7.9H49.168V21.256C49.168 25.12 47.992 26.24 45.416 26.24C42.84 26.24 41.664 25.12 41.664 21.256V7.9H36.4V22.796C36.4 28.508 39.536 31.42 45.416 31.42C51.296 31.42 54.432 28.508 54.432 22.796V7.9ZM57.5159 31H62.4719V22.88C62.4719 21.452 63.9279 20.08 65.4119 20.08C67.0079 20.08 67.9879 21.452 67.9879 22.88V31H72.9439V21.536C72.9439 17.532 69.2759 16.216 66.6439 16.216C65.0759 16.216 63.6479 17.028 62.5279 18.148H62.4719V16.636H57.5159V31ZM78.5757 7.76C76.9517 7.76 75.6357 9.076 75.6357 10.7C75.6357 12.324 76.9517 13.64 78.5757 13.64C80.1997 13.64 81.5157 12.324 81.5157 10.7C81.5157 9.076 80.1997 7.76 78.5757 7.76ZM76.0277 16.636H80.9837V31H76.0277V16.636ZM101.277 23.804C101.277 19.604 98.3369 16.216 94.1369 16.216C92.1769 16.216 90.4969 17.084 89.4329 18.26H89.3769V16.636H84.4769V38.28H89.4329V29.628C90.6089 30.776 92.2049 31.42 94.1369 31.42C98.3369 31.42 101.277 28.004 101.277 23.804ZM96.0129 23.804C96.0129 25.792 94.5289 27.192 92.6529 27.192C90.8049 27.192 89.3209 25.792 89.3209 23.804C89.3209 21.844 90.7209 20.444 92.6529 20.444C94.6689 20.444 96.0129 21.844 96.0129 23.804ZM102.554 23.832C102.554 28.256 106.026 31.42 111.206 31.42C116.162 31.42 119.774 28.256 119.774 23.832C119.774 19.352 115.966 16.216 111.206 16.216C106.362 16.216 102.554 19.352 102.554 23.832ZM107.818 23.832C107.818 21.844 109.302 20.444 111.178 20.444C113.026 20.444 114.51 21.844 114.51 23.832C114.51 25.792 113.11 27.192 111.178 27.192C109.162 27.192 107.818 25.792 107.818 23.832ZM122.047 31H127.003V23.44C127.003 23.076 127.367 20.528 129.943 20.528C131.595 20.528 132.519 21.312 132.519 21.312L134.591 17.112C134.591 17.112 133.303 16.216 131.455 16.216C128.627 16.216 127.059 18.708 127.059 18.708H127.003V16.636H122.047V31ZM136.833 16.636H134.761V20.416H136.833V25.932C136.833 28.48 137.785 31.42 141.733 31.42C143.777 31.42 145.373 30.524 145.373 30.524L144.141 26.52C144.141 26.52 143.553 26.968 142.909 26.968C142.125 26.968 141.789 26.324 141.789 24.98V20.416H144.813V16.636H141.789V11.288H136.833V16.636Z" fill="white"/>
<path d="M16.591 11.12C16.4043 11.0399 16.2032 10.9987 16 10.9987C15.7968 10.9987 15.5958 11.0399 15.409 11.12L4.90901 15.62C4.63843 15.7353 4.4077 15.9275 4.24552 16.1729C4.08335 16.4183 3.99689 16.7059 3.99689 17C3.99689 17.2941 4.08335 17.5817 4.24552 17.8271C4.4077 18.0725 4.63843 18.2647 4.90901 18.38L8.87501 20.0765C9.02222 19.91 9.20462 19.7783 9.40901 19.691L15.409 17.12C15.5906 17.0391 15.7864 16.995 15.9851 16.9905C16.1839 16.9859 16.3815 17.0209 16.5666 17.0933C16.7517 17.1658 16.9206 17.2744 17.0633 17.4127C17.2061 17.551 17.32 17.7163 17.3983 17.899C17.4766 18.0817 17.5179 18.2782 17.5196 18.4769C17.5213 18.6757 17.4836 18.8728 17.4084 19.0569C17.3333 19.2409 17.2224 19.4082 17.082 19.549C16.9417 19.6898 16.7748 19.8013 16.591 19.877L12.5005 21.632L15.4105 22.8785C15.5971 22.9583 15.7978 22.9995 16.0008 22.9995C16.2037 22.9995 16.4045 22.9583 16.591 22.8785L27.091 18.3785C27.3607 18.2628 27.5905 18.0705 27.752 17.8255C27.9135 17.5805 27.9996 17.2935 27.9996 17C27.9996 16.7065 27.9135 16.4195 27.752 16.1745C27.5905 15.9295 27.3607 15.7372 27.091 15.6215L16.591 11.1215V11.12ZM5.96501 22.0955L8.50001 23.18V29.333C7.98064 29.2149 7.45471 29.1277 6.92501 29.072C6.58323 29.0361 6.26414 28.8839 6.02113 28.6409C5.77812 28.3979 5.62593 28.0788 5.59001 27.737C5.39274 25.8484 5.51957 23.9399 5.96501 22.094V22.0955ZM14.95 32.8595C13.936 31.8646 12.7718 31.0354 11.5 30.4025V24.467L14.227 25.637C14.7873 25.8772 15.3905 26.001 16 26.001C16.6096 26.001 17.2128 25.8772 17.773 25.637L26.035 22.0955C26.4831 23.941 26.6099 25.8499 26.41 27.7385C26.3741 28.0803 26.2219 28.3994 25.9789 28.6424C25.7359 28.8854 25.4168 29.0376 25.075 29.0735C22.0488 29.3915 19.2198 30.7262 17.05 32.8595C16.7696 33.1343 16.3926 33.2883 16 33.2883C15.6074 33.2883 15.2304 33.1343 14.95 32.8595ZM10 35C10.3978 35 10.7794 34.842 11.0607 34.5607C11.342 34.2793 11.5 33.8978 11.5 33.5V30.4025C10.546 29.9285 9.5389 29.57 8.50001 29.3345V33.5C8.50001 33.8978 8.65805 34.2793 8.93935 34.5607C9.22065 34.842 9.60219 35 10 35Z" fill="#FEC260"/>
</g>
<defs>
<clipPath id="clip0">
<rect width="150" height="40" fill="white"/>
</clipPath>
</defs>
</svg>
