<svg xmlns="http://www.w3.org/2000/svg" viewBox="0 0 100 100"><path fill="#78cdd4" d="M50 35H84V84H50z"></path><path fill="#fefdef" d="M64.5 45.5H69.5V50.5H64.5zM55.5 45.5H60.5V50.5H55.5zM64.5 54.5H69.5V59.5H64.5zM55.5 54.5H60.5V59.5H55.5zM64.5 63.5H69.5V68.5H64.5zM55.5 63.5H60.5V68.5H55.5zM64.5 72.5H69.5V77.5H64.5zM55.5 72.5H60.5V77.5H55.5zM73.5 45.5H78.5V50.5H73.5zM73.5 54.5H78.5V59.5H73.5zM73.5 63.5H78.5V68.5H73.5zM73.5 72.5H78.5V77.5H73.5z"></path><path fill="#eddc67" d="M50 16c-1.419 0-30.58 0-32 0-1.657 0-3 1.343-3 3s1.343 3 3 3c1.42 0 30.581 0 32 0 1.657 0 3-1.343 3-3S51.657 16 50 16zM84 29c-1.419 0-34 0-34 0v6c0 0 32.581 0 34 0 1.657 0 3-1.343 3-3S85.657 29 84 29z"></path><path fill="#78cdd4" d="M18 22H50V84H18z"></path><path fill="#fefdef" d="M37.5 32.5H44.5V38.5H37.5zM23.5 32.5H30.5V38.5H23.5zM37.5 42.5H44.5V48.5H37.5zM23.5 42.5H30.5V48.5H23.5zM37.5 52.5H44.5V58.5H37.5zM23.5 52.5H30.5V58.5H23.5zM37.5 62.5H44.5V68.5H37.5zM23.5 62.5H30.5V68.5H23.5z"></path><path fill="#f37e98" d="M18 76H50V84H18z"></path><path fill="#fefdef" d="M38,76c0,1.196,0,8,0,8h-8c0,0,0-5.791,0-8s1.791-4,4-4S38,73.791,38,76z"></path><path fill="none" stroke="#1f212b" stroke-linecap="round" stroke-linejoin="round" stroke-miterlimit="10" stroke-width="2" d="M12 84L90 84"></path><path fill="none" stroke="#1f212b" stroke-linejoin="round" stroke-miterlimit="10" stroke-width="2" d="M18 22H50V84H18z"></path><path fill="none" stroke="#1f212b" stroke-linecap="round" stroke-miterlimit="10" d="M18.5 26.5L34.5 26.5M37.5 26.5L40.5 26.5M43.5 26.5L49.5 26.5"></path><path fill="none" stroke="#1f212b" stroke-linecap="round" stroke-linejoin="round" stroke-miterlimit="10" d="M37.5 32.5H44.5V38.5H37.5zM23.5 32.5H30.5V38.5H23.5zM37.5 42.5H44.5V48.5H37.5zM23.5 42.5H30.5V48.5H23.5zM37.5 52.5H44.5V58.5H37.5zM23.5 52.5H30.5V58.5H23.5zM37.5 62.5H44.5V68.5H37.5zM23.5 62.5H30.5V68.5H23.5z"></path><path fill="none" stroke="#1f212b" stroke-linecap="round" stroke-linejoin="round" stroke-miterlimit="10" stroke-width="2" d="M38,76 c0,1.196,0,8,0,8h-8c0,0,0-5.791,0-8s1.791-4,4-4S38,73.791,38,76z"></path><path fill="none" stroke="#1f212b" stroke-linecap="round" stroke-linejoin="round" stroke-miterlimit="10" d="M18.5 76.5L21.5 76.5M24.5 76.5L29.5 76.5M38.5 76.5L41.5 76.5M44.5 76.5L49.5 76.5"></path><path fill="none" stroke="#1f212b" stroke-linecap="round" stroke-linejoin="round" stroke-miterlimit="10" stroke-width="2" d="M50,16 c-1.419,0-30.58,0-32,0c-1.657,0-3,1.343-3,3s1.343,3,3,3c1.42,0,30.581,0,32,0c1.657,0,3-1.343,3-3S51.657,16,50,16z"></path><path fill="none" stroke="#1f212b" stroke-linejoin="round" stroke-miterlimit="10" stroke-width="2" d="M50 35H84V84H50z"></path><path fill="none" stroke="#1f212b" stroke-linecap="round" stroke-miterlimit="10" d="M50.5 39.5L67.5 39.5M70.5 39.5L72.5 39.5M75.5 39.5L83.5 39.5"></path><path fill="none" stroke="#1f212b" stroke-linecap="round" stroke-linejoin="round" stroke-miterlimit="10" d="M64.5 45.5H69.5V50.5H64.5zM55.5 45.5H60.5V50.5H55.5zM64.5 54.5H69.5V59.5H64.5zM55.5 54.5H60.5V59.5H55.5zM64.5 63.5H69.5V68.5H64.5zM55.5 63.5H60.5V68.5H55.5zM64.5 72.5H69.5V77.5H64.5zM55.5 72.5H60.5V77.5H55.5zM73.5 45.5H78.5V50.5H73.5zM73.5 54.5H78.5V59.5H73.5zM73.5 63.5H78.5V68.5H73.5zM73.5 72.5H78.5V77.5H73.5z"></path><path fill="none" stroke="#1f212b" stroke-linecap="round" stroke-linejoin="round" stroke-miterlimit="10" stroke-width="2" d="M50,35 c0,0,32.581,0,34,0c1.657,0,3-1.343,3-3s-1.343-3-3-3c-1.419,0-34,0-34,0"></path></svg>
