<svg version="1.1" xmlns="http://www.w3.org/2000/svg" xmlns:xlink="http://www.w3.org/1999/xlink" viewBox="0 0 172 172"><g fill="none" fill-rule="nonzero" stroke="none" stroke-width="1" stroke-linecap="butt" stroke-linejoin="miter" stroke-miterlimit="10" stroke-dasharray="" stroke-dashoffset="0" font-family="none" font-weight="none" font-size="none" text-anchor="none" style="mix-blend-mode: normal"><path d="M0,172v-172h172v172z" fill="none"></path><g fill="#ffffff"><path d="M89.44,6.88c-43.65844,0 -79.12,35.46156 -79.12,79.12c0,43.65844 35.46156,79.12 79.12,79.12c34.11781,0 54.94594,-15.695 65.79,-35.1525c10.84406,-19.4575 12.21469,-42.31469 8.9225,-57.9425l-0.645,-2.6875h-2.6875l-71.38,-0.1075h-3.44v35.7975h39.345c-5.93937,13.76 -18.03312,23.22 -35.905,23.22c-23.35437,0 -42.2475,-18.89312 -42.2475,-42.2475c0,-23.35437 18.89313,-42.2475 42.2475,-42.2475c10.49469,0 20.02188,3.88344 27.4125,10.2125l2.4725,2.0425l23.5425,-23.5425l2.4725,-2.58l-2.58,-2.365c-14.05562,-12.80594 -32.81437,-20.64 -53.32,-20.64zM89.44,13.76c17.45531,0 33.20406,6.38281 45.6875,16.6625l-16.555,16.555c-8.18344,-6.11406 -18.12719,-10.105 -29.1325,-10.105c-27.07656,0 -49.1275,22.05094 -49.1275,49.1275c0,27.07656 22.05094,49.1275 49.1275,49.1275c22.53469,0 38.74031,-13.81375 44.505,-32.5725l1.3975,-4.4075h-42.4625v-22.0375l64.8225,0.1075c2.28438,13.88094 0.76594,33.80875 -8.4925,50.4175c-9.83625,17.63 -27.70812,31.605 -59.77,31.605c-39.94969,0 -72.24,-32.30375 -72.24,-72.24c0,-39.93625 32.29031,-72.24 72.24,-72.24z"></path></g></g></svg>
