<svg id="visual" viewBox="0 0 900 600" width="900" height="600" xmlns="http://www.w3.org/2000/svg" xmlns:xlink="http://www.w3.org/1999/xlink" version="1.1"><rect x="0" y="0" width="900" height="600" fill="#fffbf5"></rect><path d="M0 415L37.5 418.8C75 422.7 150 430.3 225 438.7C300 447 375 456 450 458.2C525 460.3 600 455.7 675 452.3C750 449 825 447 862.5 446L900 445L900 601L862.5 601C825 601 750 601 675 601C600 601 525 601 450 601C375 601 300 601 225 601C150 601 75 601 37.5 601L0 601Z" fill="#ffe8a5" stroke-linecap="round" stroke-linejoin="miter"></path></svg>
