<svg xmlns="http://www.w3.org/2000/svg" viewBox="0 0 480 480"><path fill="#ffebd2" d="M401,300h-4v-70h-39v-43c0-55.022-37.732-101.467-89-114.4V59c0-16.001-12.948-29-29-29	c-16.001,0-29,12.948-29,29v13.6c-45.15,11.4-79.94,48.83-87.47,95.4c-1.963,12.033-1.53,16.05-1.53,62H83v70h-4	c-8.836,0-16,7.164-16,16v148c0,4.418,3.582,8,8,8h338c4.418,0,8-3.582,8-8V316C417,307.164,409.836,300,401,300z"></path><path fill="#80aaff" d="M269,72.6V59c0-16.001-12.948-29-29-29c-16.001,0-29,12.948-29,29v13.6	c-45.15,11.4-79.94,48.83-87.47,95.4h232.94C348.891,121.155,313.885,83.923,269,72.6z"></path><rect width="30" height="70" x="83" y="230" fill="#fff3e4"></rect><path fill="#585966" d="M269,72.59c0,0.435-24.98-8.352-58,0.01V59c0-16.002,12.949-29,29-29c16.001,0,29,12.948,29,29V72.59	z"></path><path fill="#9cbcff" d="M248.366,90.974c-38.452,7.256-72.389,33.459-87.835,71.933c-1.228,3.059-4.154,5.093-7.45,5.093	H123.53c9.544-59.025,62.502-102.387,123.382-98.812C259.847,69.948,261.098,88.571,248.366,90.974z"></path><path fill="#6e6f80" d="M240.266,30.001c7.753,0.071,10.678,10.31,4.159,14.506C236.434,49.651,231,58.474,231,69.34	c-6.85,0.52-13.53,1.62-20,3.26V59C211,42.92,224.086,29.853,240.266,30.001z"></path><path fill="#fff3e4" d="M150.481,168c4.673,0,8.375,3.989,7.969,8.644C157.85,183.504,158,183.172,158,230h-36	c0-44.927-0.491-49.616,1.53-62H150.481z"></path><path fill="#80aaff" d="M401,300H79c-8.836,0-16,7.164-16,16v50h354v-50C417,307.164,409.836,300,401,300z"></path><path fill="#ffdfba" d="M328,370.889v96.223c0,2.7-2.189,4.889-4.889,4.889H312V366h11.111	C325.811,366,328,368.189,328,370.889z"></path><path fill="#ffdfba" d="M168,366v106h-11.111c-2.7,0-4.889-2.189-4.889-4.889v-96.223c0-2.7,2.189-4.889,4.889-4.889H168z"></path><path fill="#ffdfba" d="M269,432v40h-58v-40c0-16.02,12.98-29,29-29C256.001,403,269,415.948,269,432z"></path><path fill="#fff3e4" d="M198,374v90c0,4.418-3.582,8-8,8h-22V366h22C194.418,366,198,369.582,198,374z"></path><path fill="#fff3e4" d="M93,374v90c0,4.418-3.582,8-8,8H71c-4.418,0-8-3.582-8-8v-98h22C89.418,366,93,369.582,93,374z"></path><path fill="#9cbcff" d="M401.084,320H109c-8.837,0-16,7.163-16,16v24c0,3.314-2.686,6-6,6H63v-50c0-8.837,7.163-16,16-16h322	C414.923,300,414.007,320,401.084,320z"></path><polygon fill="#9cbcff" points="312,366 168,366 240,300"></polygon><path fill="#c2d6ff" d="M248.567,319.647l-48.273,44.25c-1.475,1.352-3.404,2.103-5.406,2.103H168l72-66l8.567,7.853	C252.026,311.023,252.026,316.477,248.567,319.647z"></path><path fill="#719efa" d="M240,300l-72,66h-11.111c-4.464,0-6.566-5.503-3.302-8.493l60.44-55.404	c1.475-1.353,3.404-2.103,5.406-2.103H240z"></path><path fill="#719efa" d="M323.111,366H312l-72-66h20.568c2.002,0,3.931,0.75,5.406,2.103l60.44,55.404	C329.677,360.496,327.577,366,323.111,366z"></path><path d="M401,292h-46v-29.064c0-4.418-3.582-8-8-8s-8,3.582-8,8V292H209v-25.193c0-4.418-3.582-8-8-8s-8,3.582-8,8V300 c0,4.418,3.582,8,8,8h18.433l-22.154,20.308c-3.257,2.985-3.477,8.046-0.491,11.304c2.987,3.257,8.048,3.476,11.304,0.491 L240,310.853L291.433,358H98.032c-4.418,0-8,3.582-8,8s3.582,8,8,8H304v52.29c0,4.418,3.582,8,8,8s8-3.582,8-8V374h89v90h-93.419 c-4.418,0-8,3.582-8,8s3.582,8,8,8H417c4.418,0,8-3.582,8-8V316C425,302.767,414.233,292,401,292z M315.113,358l-54.545-50H401 c4.411,0,8,3.589,8,8v42H315.113z"></path><path d="M240,395c-20.402,0-37,16.598-37,37c0,4.418,3.582,8,8,8s8-3.582,8-8c0-11.579,9.421-21,21-21s21,9.421,21,21v32h-85 v-55.903c0-4.418-3.582-8-8-8s-8,3.582-8,8V464H71V316c0-4.411,3.589-8,8-8h87c4.418,0,8-3.582,8-8s-3.582-8-8-8H91v-54h34v32.29 c0,4.418,3.582,8,8,8s8-3.582,8-8V238h130v32.29c0,4.418,3.582,8,8,8s8-3.582,8-8V238h102v23.774c0,4.418,3.582,8,8,8s8-3.582,8-8 V238h8c4.418,0,8-3.582,8-8s-3.582-8-8-8h-47v-35c0-77.396-69.736-137.261-147-124.24V59c0-11.579,9.421-21,21-21 c5.949,0,11.645,2.54,15.625,6.97c2.952,3.284,8.01,3.556,11.298,0.603c3.286-2.953,3.556-8.012,0.603-11.298 c-5.196-5.782-12.055-9.731-19.525-11.39V8c0-4.418-3.582-8-8-8s-8,3.582-8,8v14.881C215.432,26.548,203,41.345,203,59v7.547 c-45.058,13.869-78.199,52.597-87.286,99.728c-0.055,0.287-0.106,0.577-0.145,0.872C113.737,180.97,114,184.773,114,197.903 c0,4.418,3.582,8,8,8s8-3.582,8-8c0-10.322-0.145-14.955,0.548-21.903h186.581c4.418,0,8-3.582,8-8s-3.582-8-8-8H199.266 c0.795-15.134,4.794-29.838,11.95-43.809c2.015-3.933,0.459-8.754-3.473-10.768c-3.934-2.017-8.753-0.459-10.768,3.473 c-8.33,16.262-12.932,33.417-13.735,51.104h-49.884c11.843-46.755,53.702-81.678,103.783-82.963 c18.313,15.437,31.575,34.508,38.404,55.332c1.105,3.37,4.236,5.509,7.601,5.509c5.417,0,9.305-5.305,7.603-10.495 c-5.72-17.442-15.361-33.747-28.275-48.072C312.385,89.713,350,134.045,350,187v35h-42v-20c0-4.418-3.582-8-8-8s-8,3.582-8,8v20 h-44v-20c0-4.418-3.582-8-8-8s-8,3.582-8,8v20h-44v-20c0-4.418-3.582-8-8-8s-8,3.582-8,8v20H67c-4.418,0-8,3.582-8,8s3.582,8,8,8h8 v54.34C63.665,294.25,55,304.13,55,316v156c0,4.418,3.582,8,8,8h206c4.418,0,8-3.582,8-8v-40C277,411.598,260.402,395,240,395z"></path><path d="M122,430v-20c0-4.418-3.582-8-8-8s-8,3.582-8,8v20c0,4.418,3.582,8,8,8S122,434.418,122,430z"></path><path d="M374,430v-20c0-4.418-3.582-8-8-8s-8,3.582-8,8v20c0,4.418,3.582,8,8,8S374,434.418,374,430z"></path></svg>
