<svg xmlns="http://www.w3.org/2000/svg" viewBox="0 0 48 48"><path fill="#fff59d" d="M24 2A19 19 0 1 0 24 40A19 19 0 1 0 24 2Z"></path><path fill="#fbc02d" d="M37,21c0-7.7-6.6-13.8-14.5-12.9c-6,0.7-10.8,5.5-11.4,11.5c-0.5,4.6,1.4,8.7,4.6,11.3 c1.4,1.2,2.3,2.9,2.3,4.8V36h12v-0.1c0-1.8,0.8-3.6,2.2-4.8C35.1,28.7,37,25.1,37,21z"></path><path fill="#fff59d" d="M27,36h-2V25c0-0.227,0.077-0.447,0.219-0.625l3.319-4.148L27,19.202l-2.445,1.63 c-0.336,0.224-0.773,0.224-1.109,0L21,19.202l-1.538,1.025l3.318,4.148C22.923,24.553,23,24.773,23,25v11h-2V25.351l-3.781-4.726 c-0.175-0.219-0.25-0.501-0.208-0.778s0.2-0.523,0.434-0.679l3-2c0.336-0.224,0.773-0.224,1.109,0L24,18.798l2.445-1.63 c0.336-0.224,0.773-0.224,1.109,0l3,2c0.233,0.155,0.391,0.402,0.434,0.679s-0.032,0.559-0.207,0.778L27,25.351V36z"></path><path fill="#5c6bc0" d="M24 40A3 3 0 1 0 24 46A3 3 0 1 0 24 40Z"></path><path fill="#9fa8da" d="M26,44h-4c-2.2,0-4-1.8-4-4v-5h12v5C30,42.2,28.2,44,26,44z"></path><path fill="#5c6bc0" d="M30 40l-11.6 1.6c.3.7.9 1.4 1.6 1.8l9.4-1.3C29.8 41.5 30 40.8 30 40zM18 37.7L18 39.7 30 38 30 36z"></path><path fill="#546e7a" d="M45.2,14.1c0.1-0.4,0.1-0.8,0.1-1.1s0-0.8-0.1-1.1l2.3-1.7c0.2-0.2,0.3-0.5,0.2-0.7l-2.3-3.9 c-0.1-0.2-0.4-0.3-0.7-0.2l-2.6,1.2c-0.6-0.5-1.3-0.9-2-1.2l-0.3-2.9c0-0.3-0.3-0.5-0.5-0.5h-4.6c-0.2,0-0.5,0.2-0.5,0.5l-0.3,2.9 c-0.7,0.2-1.4,0.6-2,1.1l-2.6-1.2c-0.3-0.1-0.6,0-0.7,0.2l-2.3,4c-0.1,0.2,0,0.5,0.2,0.7l2.3,1.7c-0.1,0.4-0.1,0.8-0.1,1.1 s0,0.8,0.1,1.1l-2.3,1.7c-0.2,0.2-0.3,0.5-0.2,0.7l2.3,3.9c0.1,0.2,0.4,0.3,0.7,0.2l2.6-1.2c0.6,0.5,1.3,0.9,2,1.2l0.3,2.9 c0,0.3,0.3,0.5,0.5,0.5h4.5c0.3,0,0.5-0.2,0.5-0.5l0.3-2.9c0.7-0.3,1.4-0.7,2-1.2l2.6,1.2c0.3,0.1,0.6,0,0.7-0.2l2.3-3.9 c0.1-0.2,0.1-0.6-0.2-0.7L45.2,14.1z M37,18.2c-2.9,0-5.2-2.3-5.2-5.2s2.3-5.2,5.2-5.2s5.2,2.3,5.2,5.2S39.9,18.2,37,18.2"></path><path fill="#455a64" d="M37,7c-3.3,0-6,2.7-6,6s2.7,6,6,6s6-2.7,6-6S40.3,7,37,7 M37,16c-1.7,0-3-1.3-3-3s1.3-3,3-3 s3,1.3,3,3S38.7,16,37,16"></path><path fill="#fff59d" d="M37 10A3 3 0 1 0 37 16A3 3 0 1 0 37 10Z"></path></svg>
