<svg xmlns="http://www.w3.org/2000/svg" viewBox="0 0 64 64"><g data-name="22-School"><rect width="62" height="4" x="1" y="59" fill="#468261"></rect><polygon fill="#fbb253" points="36 3 32 6 32 1 36 3"></polygon><rect width="7" height="12" x="25" y="51" fill="#8388da"></rect><rect width="7" height="12" x="32" y="51" fill="#8388da"></rect><rect width="7" height="6" x="25" y="45" fill="#fcc369"></rect><rect width="7" height="6" x="32" y="45" fill="#fcc369"></rect><path fill="#fbb253" d="M8,29h4v3H7V30A1,1,0,0,1,8,29Z"></path><path fill="#fbb253" d="M17,30v2H12V29h4A1,1,0,0,1,17,30Z"></path><path fill="#fbb253" d="M8,45h4v3H7V46A1,1,0,0,1,8,45Z"></path><path fill="#fbb253" d="M17,46v2H12V45h4A1,1,0,0,1,17,46Z"></path><path fill="#fbb253" d="M57,46v2H52V45h4A1,1,0,0,1,57,46Z"></path><path fill="#fbb253" d="M48,45h4v3H47V46A1,1,0,0,1,48,45Z"></path><path fill="#fbb253" d="M48,29h4v3H47V30A1,1,0,0,1,48,29Z"></path><path fill="#fbb253" d="M57,30v2H52V29h4A1,1,0,0,1,57,30Z"></path><path fill="#8388da" d="M17,32v6a1,1,0,0,1-1,1H8a1,1,0,0,1-1-1V32H17Z"></path><path fill="#8388da" d="M17,48v6a1,1,0,0,1-1,1H8a1,1,0,0,1-1-1V48H17Z"></path><path fill="#8388da" d="M57,48v6a1,1,0,0,1-1,1H48a1,1,0,0,1-1-1V48H57Z"></path><path fill="#8388da" d="M57,32v6a1,1,0,0,1-1,1H48a1,1,0,0,1-1-1V32H57Z"></path><circle cx="32" cy="21" r="4" fill="#8388da"></circle><polygon fill="#954f51" points="36.2 9 46 16 46 21 43 19 32 11 21 19 18 21 18 16 27.8 9 32 6 36.2 9"></polygon><polygon fill="#954f51" points="21 22 21 25 3 25 1 25 1 22 21 22"></polygon><polygon fill="#954f51" points="63 22 63 25 61 25 43 25 43 22 63 22"></polygon><path fill="#e3d0c2" d="M21,25V59H4a1,1,0,0,1-1-1V25ZM17,54V46a1,1,0,0,0-1-1H8a1,1,0,0,0-1,1v8a1,1,0,0,0,1,1h8A1,1,0,0,0,17,54Zm0-16V30a1,1,0,0,0-1-1H8a1,1,0,0,0-1,1v8a1,1,0,0,0,1,1h8A1,1,0,0,0,17,38Z"></path><path fill="#e3d0c2" d="M61,25V58a1,1,0,0,1-1,1H43V25ZM57,54V46a1,1,0,0,0-1-1H48a1,1,0,0,0-1,1v8a1,1,0,0,0,1,1h8A1,1,0,0,0,57,54Zm0-16V30a1,1,0,0,0-1-1H48a1,1,0,0,0-1,1v8a1,1,0,0,0,1,1h8A1,1,0,0,0,57,38Z"></path><path fill="#fceee0" d="M43,59v4H39V45H25V63H21V19l11-8,11,8V59ZM36,21a4,4,0,1,0-4,4A4,4,0,0,0,36,21Z"></path><polygon fill="#d6c4b7" points="32 11 21 19 21 22 32 14 43 22 43 19 32 11"></polygon><polygon fill="#fbb253" points="18 21 21 19 21 22 1 22 9 9 27.8 9 18 16 18 21"></polygon><polygon fill="#fbb253" points="46 21 46 16 36.2 9 55 9 63 22 43 22 43 19 46 21"></polygon><path fill="#6b3c3b" d="M44,14.571V16a1,1,0,0,1-1.6.8L32,9,21.6,16.8A1,1,0,0,1,20,16V14.571L18,16v5l3-2,11-8,11,8,3,2V16Z"></path><path fill="#6b3c3b" d="M43,22v3H63V24H48a2,2,0,0,1-2-2H43Z"></path><path fill="#6b3c3b" d="M21,22v3H1V24H16a2,2,0,0,0,2-2h3Z"></path><path fill="#d6c4b7" d="M47,28H61V25H43V59h3V29A1,1,0,0,1,47,28Z"></path><path fill="#d6c4b7" d="M17,28H3V25H21V59H18V29A1,1,0,0,0,17,28Z"></path><polygon fill="#c1cfe8" points="47 32 47 35 50 32 47 32"></polygon><path fill="#edf4fa" d="M56,39a1,1,0,0,0,1-1V32l-7,7Z"></path><path fill="#dae3f5" d="M47.294,38.706A.993.993,0,0,0,48,39h2l7-7H54Z"></path><path fill="#edf4fa" d="M52,32H50l-3,3v3a.993.993,0,0,0,.294.706L54,32Z"></path><polygon fill="#adb4c2" points="52.5 31 52.5 29 51.5 29 51.5 31 47 31 47 32 51.5 32 52.5 32 57 32 57 31 52.5 31"></polygon><polygon fill="#c1cfe8" points="47 48 47 51 50 48 47 48"></polygon><path fill="#edf4fa" d="M56,55a1,1,0,0,0,1-1V48l-7,7Z"></path><path fill="#dae3f5" d="M47.294,54.706A.993.993,0,0,0,48,55h2l7-7H54Z"></path><path fill="#edf4fa" d="M52,48H50l-3,3v3a.993.993,0,0,0,.294.706L54,48Z"></path><polygon fill="#adb4c2" points="52.5 47 52.5 45 51.5 45 51.5 47 47 47 47 48 51.5 48 52.5 48 57 48 57 47 52.5 47"></polygon><polygon fill="#c1cfe8" points="7 32 7 35 10 32 7 32"></polygon><path fill="#edf4fa" d="M16,39a1,1,0,0,0,1-1V32l-7,7Z"></path><path fill="#dae3f5" d="M7.294,38.706A.993.993,0,0,0,8,39h2l7-7H14Z"></path><path fill="#edf4fa" d="M12,32H10L7,35v3a.993.993,0,0,0,.294.706L14,32Z"></path><polygon fill="#adb4c2" points="12.5 31 12.5 29 11.5 29 11.5 31 7 31 7 32 11.5 32 12.5 32 17 32 17 31 12.5 31"></polygon><polygon fill="#c1cfe8" points="7 48 7 51 10 48 7 48"></polygon><path fill="#edf4fa" d="M16,55a1,1,0,0,0,1-1V48l-7,7Z"></path><path fill="#dae3f5" d="M7.294,54.706A.993.993,0,0,0,8,55h2l7-7H14Z"></path><path fill="#edf4fa" d="M12,48H10L7,51v3a.993.993,0,0,0,.294.706L14,48Z"></path><polygon fill="#adb4c2" points="12.5 47 12.5 45 11.5 45 11.5 47 7 47 7 48 11.5 48 12.5 48 17 48 17 47 12.5 47"></polygon><path fill="#954f51" d="M32,16a5,5,0,1,0,5,5A5,5,0,0,0,32,16Zm0,9a4,4,0,1,1,4-4A4,4,0,0,1,32,25Z"></path><path fill="#555fa3" d="M36,21a4,4,0,0,0-7.641-1.641,3.987,3.987,0,0,1,5.282,5.282A3.993,3.993,0,0,0,36,21Z"></path><path fill="#fff" d="M34,21.5H32a.5.5,0,0,1-.5-.5V18a.5.5,0,0,1,1,0v2.5H34a.5.5,0,0,1,0,1Z"></path><polygon fill="#dae3f5" points="32 54 25 61 25 63 27 63 32 58 32 54"></polygon><polygon fill="#c1cfe8" points="25 51 25 56 30 51 25 51"></polygon><polygon fill="#edf4fa" points="32 51 30 51 25 56 25 61 32 54 32 51"></polygon><polygon fill="#edf4fa" points="27 63 32 63 32 58 27 63"></polygon><polygon fill="#dae3f5" points="32 58 39 51 35 51 32 54 32 58"></polygon><polygon fill="#c1cfe8" points="39 58 34 63 39 63 39 58"></polygon><polygon fill="#edf4fa" points="35 51 32 51 32 54 35 51"></polygon><polygon fill="#edf4fa" points="39 51 32 58 32 63 34 63 39 58 39 51"></polygon><path fill="#ed9b52" d="M32,45h7v6H37V48a2,2,0,0,0-2-2H32Z"></path><path fill="#ed9b52" d="M25,45h7v6H30V48a2,2,0,0,0-2-2H25Z"></path><polygon fill="#adb4c2" points="39 50.5 32.5 50.5 32.5 45 31.5 45 31.5 50.5 25 50.5 25 51.5 31.5 51.5 31.5 63 32.5 63 32.5 51.5 39 51.5 39 50.5"></polygon><rect width="1" height="3" x="34" y="55" fill="#c1c9d8" rx=".5"></rect><rect width="1" height="3" x="29" y="55" fill="#c1c9d8" rx=".5"></rect><path fill="#ed9b52" d="M3.462,18,1,22H21V19l-3,2V16l9.8-7H25.273L14.056,17.226A4,4,0,0,1,11.691,18Z"></path><path fill="#ed9b52" d="M43,19v3H63l-2.462-4H52.309a4,4,0,0,1-2.365-.774L38.727,9H36.2L46,16v5Z"></path></g></svg>
