<svg xmlns="http://www.w3.org/2000/svg" viewBox="0 0 100 100"><polygon fill="#8cc78c" points="33.254,47.37 33.254,55.284 26.4,51.327 19.545,47.37 26.4,43.411 33.254,39.454"></polygon><polygon fill="#8cc78c" points="33.254,31.54 33.254,39.454 26.4,35.497 19.545,31.54 26.4,27.582 33.254,23.625"></polygon><polygon fill="#8cc78c" points="46.963,23.625 46.963,31.54 40.108,27.582 33.254,23.625 40.108,19.668 46.963,15.711"></polygon><polygon fill="#c4e7ed" points="66.746,47.37 66.746,55.284 73.6,51.327 80.455,47.37 73.6,43.411 66.746,39.454"></polygon><polygon fill="#c4e7ed" points="66.746,31.54 66.746,39.454 73.6,35.497 80.455,31.54 73.6,27.582 66.746,23.625"></polygon><polygon fill="#c4e7ed" points="53.037,23.625 53.037,31.54 59.892,27.582 66.746,23.625 59.892,19.668 53.037,15.711"></polygon><polygon fill="#f59173" points="36.29,68.459 36.29,76.373 43.145,72.416 49.999,68.459 43.145,64.501 36.29,60.544"></polygon><polygon fill="#f59173" points="63.708,68.459 63.708,60.544 70.562,64.501 77.416,68.459 70.562,72.416 63.708,76.373"></polygon><polygon fill="#f59173" points="49.999,76.373 49.999,68.459 56.853,72.416 63.708,76.373 56.853,80.33 49.999,84.289"></polygon><polygon fill="#70b570" points="19.311,39.454 19.311,31.54 26.283,35.497 33.254,39.454 26.283,43.411 19.311,47.37"></polygon><polygon fill="#70b570" points="19.311,55.284 19.311,47.37 26.283,51.327 33.254,55.284 26.283,59.241 19.311,63.199"></polygon><polygon fill="#70b570" points="33.254,31.54 33.254,23.625 40.108,27.582 46.963,31.54 40.108,35.497 33.254,39.454"></polygon><polygon fill="#39c2d8" points="80.819,39.454 80.819,31.54 73.782,35.497 66.746,39.454 73.782,43.411 80.819,47.37"></polygon><polygon fill="#39c2d8" points="80.819,55.284 80.819,47.37 73.782,51.327 66.746,55.284 73.782,59.241 80.819,63.199"></polygon><polygon fill="#39c2d8" points="66.746,31.54 66.746,23.625 59.892,27.582 53.037,31.54 59.892,35.497 66.746,39.454"></polygon><polygon fill="#f15b6c" points="36.29,68.459 36.29,60.544 29.436,64.501 22.582,68.459 29.436,72.416 36.29,76.373"></polygon><polygon fill="#f15b6c" points="49.999,76.373 49.999,68.459 43.145,72.416 36.29,76.373 43.145,80.33 49.999,84.289"></polygon><polygon fill="#f15b6c" points="63.708,68.459 63.708,76.373 56.853,72.416 49.999,68.459 56.853,64.501 63.708,60.544"></polygon><path fill="#1f212b" d="M47.5,14.677c-0.31-0.178-0.69-0.178-1,0l-28,16.165c-0.31,0.179-0.5,0.509-0.5,0.866v31.575	c0,0.357,0.19,0.688,0.5,0.866c0.155,0.089,0.327,0.134,0.5,0.134s0.345-0.045,0.5-0.134l14-8.083c0.31-0.179,0.5-0.509,0.5-0.866	V40.116l13.5-7.794c0.31-0.179,0.5-0.509,0.5-0.866V15.543C48,15.186,47.81,14.855,47.5,14.677z M46,30.407l-11.373-6.566L46,17.275	V30.407z M20,32.506l12.027,6.827C32.013,39.4,32,39.468,32,39.539v0.052l-12,6.812V32.506z M33.754,37.949V24.491l11.655,6.729	L33.754,37.949z M32.754,38.526l-0.06,0.035l-11.882-6.744l11.943-6.895V38.526z M20,48.336l11.542,6.552L20,61.551V48.336z M20.323,47.37L32,40.741v13.257L20.323,47.37z"></path><path fill="#1f212b" d="M81.5,30.842l-28-16.165c-0.31-0.178-0.69-0.178-1,0c-0.31,0.179-0.5,0.509-0.5,0.866v15.913	c0,0.357,0.19,0.688,0.5,0.866L66,40.116V55.2c0,0.357,0.19,0.688,0.5,0.866l14,8.083c0.155,0.089,0.327,0.134,0.5,0.134	s0.345-0.045,0.5-0.134c0.31-0.179,0.5-0.509,0.5-0.866V31.708C82,31.351,81.81,31.021,81.5,30.842z M80,46.335l-12-6.75v-0.047	c0-0.069-0.013-0.135-0.027-0.201L80,32.574V46.335z M80,61.551l-11.535-6.659L80,48.404V61.551z M68,40.733l11.799,6.637L68,54.006	V40.733z M67.31,38.563l-0.064-0.037V24.922l12.001,6.928L67.31,38.563z M66.246,37.949L54.591,31.22l11.655-6.729V37.949z M65.373,23.841L54,30.407V17.275L65.373,23.841z"></path><path fill="#1f212b" d="M77.916,67.593l-13.708-7.915c-0.31-0.178-0.69-0.178-1,0l-13.209,7.627L36.79,59.678	c-0.31-0.178-0.69-0.178-1,0l-13.708,7.915c-0.31,0.179-0.5,0.509-0.5,0.866s0.19,0.688,0.5,0.866l27.417,15.83	c0.155,0.089,0.327,0.134,0.5,0.134s0.345-0.045,0.5-0.134l27.417-15.83c0.31-0.179,0.5-0.509,0.5-0.866	S78.226,67.771,77.916,67.593z M35.79,74.93l-11.208-6.471l11.208-6.472V74.93z M37.789,76.085l11.71-6.76v13.521L37.789,76.085z M63.208,61.987v13.52l-11.709-6.759L63.208,61.987z M50.499,69.325L50.499,69.325l11.71,6.759l-11.71,6.761V69.325z M48.499,68.748	l-11.709,6.76V61.987L48.499,68.748z M64.208,74.93V61.987l11.208,6.472L64.208,74.93z"></path></svg>
